<svg width="16" height="16" viewBox="0 0 16 16" fill="none" xmlns="http://www.w3.org/2000/svg">
<path fill-rule="evenodd" clip-rule="evenodd" d="M2.17157 2.17157C2.92172 1.42143 3.93913 1 5 1H11C12.0609 1 13.0783 1.42143 13.8284 2.17157C14.5786 2.92172 15 3.93913 15 5V11C15 12.0609 14.5786 13.0783 13.8284 13.8284C13.0783 14.5786 12.0609 15 11 15H5C3.93913 15 2.92172 14.5786 2.17157 13.8284C1.42143 13.0783 1 12.0609 1 11V5C1 3.93913 1.42143 2.92172 2.17157 2.17157ZM3.29289 7.66924C3.10536 7.85678 3 8.11113 3 8.37635V9C3 9.26522 3.10536 9.51957 3.29289 9.70711C3.48043 9.89464 3.73478 10 4 10C4.26522 10 4.51957 9.89464 4.70711 9.70711C4.89464 9.51957 5 9.26522 5 9V8.37635C5 8.11113 4.89464 7.85678 4.70711 7.66924C4.51957 7.48171 4.26522 7.37635 4 7.37635C3.73478 7.37635 3.48043 7.48171 3.29289 7.66924ZM12.7071 9.70711C12.8946 9.51957 13 9.26522 13 9V8.37635C13 8.11113 12.8946 7.85678 12.7071 7.66924C12.5196 7.48171 12.2652 7.37635 12 7.37635C11.7348 7.37635 11.4804 7.48171 11.2929 7.66924C11.1054 7.85678 11 8.11113 11 8.37635V9C11 9.26522 11.1054 9.51957 11.2929 9.70711C11.4804 9.89464 11.7348 10 12 10C12.2652 10 12.5196 9.89464 12.7071 9.70711ZM9.5 7L10 8L12 7L14 6L13.5 5L11.5 6L9.5 7ZM6 8L4 7L2 6L2.5 5L4.5 6L6.5 7L6 8ZM6 12C5.54592 12.3144 5.31437 12.5459 5 13C4.75147 13.359 4.5 14 4.5 14C4.5 14 5.38599 13.3444 6 13C6.09249 12.9481 6.17443 12.8995 6.25147 12.8538C6.49158 12.7114 6.68405 12.5972 7 12.5C7.74651 12.2703 8.25349 12.2703 9 12.5C9.31595 12.5972 9.74854 12.8538 9.74854 12.8538C9.74854 12.8538 9.90751 12.9481 10 13C10.614 13.3444 11.5 14 11.5 14C11.5 14 11.2485 13.359 11 13C10.6856 12.5459 10.4541 12.3144 10 12C9.64101 11.7515 9.41731 11.6284 9 11.5C8.25349 11.2703 7.74651 11.2703 7 11.5C6.58269 11.6284 6.35899 11.7515 6 12Z" fill="#8DA5F3"/>
</svg>
